<svg width="35" height="36" viewBox="0 0 35 36" fill="none" xmlns="http://www.w3.org/2000/svg">
<path d="M2.9165 4.875H32.0832" stroke="black" stroke-width="2" stroke-miterlimit="10" stroke-linecap="round" stroke-linejoin="round"/>
<path d="M2.9165 13.625H16.0415" stroke="black" stroke-width="2" stroke-miterlimit="10" stroke-linecap="round" stroke-linejoin="round"/>
<path d="M2.9165 22.375H11.6665" stroke="black" stroke-width="2" stroke-miterlimit="10" stroke-linecap="round" stroke-linejoin="round"/>
<path d="M2.9165 31.125H8.74984" stroke="black" stroke-width="2" stroke-miterlimit="10" stroke-linecap="round" stroke-linejoin="round"/>
<path d="M17.2666 32.5829C19.0224 32.5829 20.4457 31.1596 20.4457 29.4038C20.4457 27.648 19.0224 26.2246 17.2666 26.2246C15.5108 26.2246 14.0874 27.648 14.0874 29.4038C14.0874 31.1596 15.5108 32.5829 17.2666 32.5829Z" stroke="black" stroke-width="2" stroke-linecap="round" stroke-linejoin="round"/>
<path d="M32.0833 27.2892V14.8788C32.0833 12.2392 30.4208 11.8746 28.7437 12.3267L22.4 14.0621C21.2479 14.383 20.4458 15.2871 20.4458 16.6142V18.8309V20.3184V29.4038" stroke="black" stroke-width="2" stroke-linecap="round" stroke-linejoin="round"/>
<path d="M28.9043 30.4687C30.6601 30.4687 32.0834 29.0453 32.0834 27.2895C32.0834 25.5337 30.6601 24.1104 28.9043 24.1104C27.1485 24.1104 25.7251 25.5337 25.7251 27.2895C25.7251 29.0453 27.1485 30.4687 28.9043 30.4687Z" stroke="black" stroke-width="2" stroke-linecap="round" stroke-linejoin="round"/>
<path d="M20.4458 20.3325L32.0833 17.1533" stroke="black" stroke-width="2" stroke-linecap="round" stroke-linejoin="round"/>
</svg>
